<?xml version="1.0" encoding="UTF-8"?>
<!DOCTYPE svg PUBLIC "-//W3C//DTD SVG 1.1//EN" "http://www.w3.org/Graphics/SVG/1.1/DTD/svg11.dtd">
<svg xmlns="http://www.w3.org/2000/svg" version="1.1" width="256px" height="256px" style="shape-rendering:geometricPrecision; text-rendering:geometricPrecision; image-rendering:optimizeQuality; fill-rule:evenodd; clip-rule:evenodd" xmlns:xlink="http://www.w3.org/1999/xlink">
<g><path style="opacity:0.939" fill="#592c61" d="M 124.5,-0.5 C 167.5,-0.5 210.5,-0.5 253.5,-0.5C 253.833,0.5 254.5,1.16667 255.5,1.5C 255.5,85.5 255.5,169.5 255.5,253.5C 254.5,253.833 253.833,254.5 253.5,255.5C 199.833,255.5 146.167,255.5 92.5,255.5C 87.0416,253.231 82.2083,249.897 78,245.5C 76.6667,247.5 75.3333,249.5 74,251.5C 71.9847,252.697 70.1513,254.03 68.5,255.5C 48.5,255.5 28.5,255.5 8.5,255.5C 7.01307,254.196 5.3464,253.03 3.5,252C 2.30342,249.985 0.970083,248.151 -0.5,246.5C -0.5,215.5 -0.5,184.5 -0.5,153.5C 1.73934,148.766 5.40601,145.599 10.5,144C 29.1667,143.333 47.8333,143.333 66.5,144C 70.0662,144.7 72.8995,146.533 75,149.5C 81.6667,142.833 88.3333,136.167 95,129.5C 87.3238,98.4667 79.1571,67.4667 70.5,36.5C 70.8557,33.8854 72.189,32.0521 74.5,31C 90.4902,26.7242 106.49,22.5575 122.5,18.5C 122.334,12.8236 122.501,7.15688 123,1.5C 123.717,0.955796 124.217,0.28913 124.5,-0.5 Z M 132.5,9.5 C 169.833,9.5 207.167,9.5 244.5,9.5C 244.5,88.1667 244.5,166.833 244.5,245.5C 233.162,245.667 221.828,245.5 210.5,245C 211.833,240.667 211.833,236.333 210.5,232C 225.166,230.338 230.833,222.338 227.5,208C 238.752,202.006 241.919,193.173 237,181.5C 236.979,158.745 236.313,136.079 235,113.5C 232.075,110.941 229.075,110.941 226,113.5C 225.5,133.497 225.333,153.497 225.5,173.5C 224.448,173.649 223.448,173.483 222.5,173C 225.076,156.234 217.743,148.234 200.5,149C 214.728,138.988 217.228,126.488 208,111.5C 196.823,101.846 184.99,101.012 172.5,109C 162.9,119.84 162.066,131.34 170,143.5C 172.234,145.7 174.734,147.533 177.5,149C 169.173,149.5 160.84,149.666 152.5,149.5C 152.5,117.833 152.5,86.1667 152.5,54.5C 162.14,52.1934 168.14,46.1934 170.5,36.5C 182.833,36.5 195.167,36.5 207.5,36.5C 209.86,46.1934 215.86,52.1934 225.5,54.5C 225.334,60.8421 225.5,67.1754 226,73.5C 230.2,76.6604 233.533,75.9937 236,71.5C 236.667,63.8333 236.667,56.1667 236,48.5C 234.29,45.1039 231.457,43.6039 227.5,44C 224.438,42.9392 221.938,41.1059 220,38.5C 218.621,34.5423 217.121,30.7089 215.5,27C 197.833,26.3333 180.167,26.3333 162.5,27C 160.879,30.7089 159.379,34.5423 158,38.5C 153.782,42.7739 148.782,45.4406 143,46.5C 141.514,80.7467 141.014,115.08 141.5,149.5C 138.5,149.5 135.5,149.5 132.5,149.5C 132.5,102.833 132.5,56.1667 132.5,9.5 Z M 121.5,29.5 C 122.49,35.31 122.823,41.31 122.5,47.5C 120.173,47.6646 118.007,48.3313 116,49.5C 115.776,54.4572 115.109,59.4572 114,64.5C 111.635,67.8691 108.468,70.0357 104.5,71C 102.99,72.3513 101.99,74.018 101.5,76C 108.09,100.194 114.757,124.361 121.5,148.5C 120,148.833 118.5,149.167 117,149.5C 115.019,149.371 113.353,148.704 112,147.5C 102.58,112.323 93.0805,77.1561 83.5,42C 84.0933,40.1183 85.4267,39.1183 87.5,39C 99.0395,36.1186 110.373,32.9519 121.5,29.5 Z M 121.5,72.5 C 122.66,84.3262 122.826,96.3262 122,108.5C 119.5,99.1667 117,89.8333 114.5,80.5C 116.827,77.839 119.16,75.1723 121.5,72.5 Z M 184.5,114.5 C 198.416,113.705 203.916,120.038 201,133.5C 195.58,140.926 188.746,142.426 180.5,138C 173.038,128.603 174.371,120.77 184.5,114.5 Z M 98.5,141.5 C 100.102,147.376 102.102,153.209 104.5,159C 138.5,159.333 172.5,159.667 206.5,160C 211.71,161.211 213.544,164.377 212,169.5C 210.681,171.487 208.848,172.654 206.5,173C 188.5,173.333 170.5,173.667 152.5,174C 149.833,177 149.833,180 152.5,183C 175.5,183.333 198.5,183.667 221.5,184C 227.697,185.229 229.531,188.729 227,194.5C 225.509,196.004 223.676,196.837 221.5,197C 198.261,197.172 175.094,197.672 152,198.5C 149.948,201.46 150.114,204.293 152.5,207C 173.231,207.034 193.898,207.701 214.5,209C 219.153,214.413 218.153,218.413 211.5,221C 191.833,221.333 172.167,221.667 152.5,222C 149.833,225 149.833,228 152.5,231C 167.568,231.048 182.568,231.715 197.5,233C 201.5,236.667 201.5,240.333 197.5,244C 164.894,245.645 132.227,245.978 99.5,245C 95.7098,244.77 92.3765,243.437 89.5,241C 85.3825,237.85 81.5492,234.35 78,230.5C 77.3333,207.833 77.3333,185.167 78,162.5C 85.0359,155.632 91.8693,148.632 98.5,141.5 Z M 12.5,154.5 C 19.5,154.5 26.5,154.5 33.5,154.5C 33.3334,174.836 33.5,195.169 34,215.5C 39.011,218.495 42.3444,217.161 44,211.5C 44.4999,192.503 44.6666,173.503 44.5,154.5C 51.175,154.334 57.8417,154.5 64.5,155C 65.8932,156.171 66.7265,157.671 67,159.5C 67.6667,186.5 67.6667,213.5 67,240.5C 66.8333,243.333 65.3333,244.833 62.5,245C 46.5,245.667 30.5,245.667 14.5,245C 13.2341,244.691 12.0674,244.191 11,243.5C 10.3333,214.5 10.3333,185.5 11,156.5C 11.7172,155.956 12.2172,155.289 12.5,154.5 Z"/></g>
<g><path style="opacity:0.813" fill="#592c61" d="M 227.5,89.5 C 235.605,88.5603 237.938,91.727 234.5,99C 225.751,100.426 223.418,97.2592 227.5,89.5 Z"/></g>
<g><path style="opacity:0.886" fill="#592c61" d="M 35.5,225.5 C 43.4863,224.998 45.4863,228.165 41.5,235C 33.424,235.805 31.424,232.638 35.5,225.5 Z"/></g>
</svg>
